<svg width="99" height="60" viewBox="0 0 99 60" fill="none" xmlns="http://www.w3.org/2000/svg">
<path d="M42.1806 0.591406L34.3559 8.37617C32.0131 9.01602 29.8388 10.1891 28.0013 11.8039L23.9281 15.4145C22.3663 16.8008 20.3297 17.5625 18.2319 17.5625H15.2V37.0625C18.3237 37.1539 21.2944 38.4184 23.5147 40.6273L28.9659 46.0508L30.0378 47.1172L34.1722 51.2305C35.1216 52.175 36.6834 52.175 37.6328 51.2305C37.8931 50.9715 38.0922 50.6668 38.1994 50.3469C38.6281 49.1738 39.6234 48.2902 40.8484 48.016C42.0734 47.7418 43.3597 48.1074 44.2478 49.0062L45.9016 50.6211C47.6778 52.3883 50.5566 52.3883 52.3175 50.6211C53.1444 49.7984 53.5884 48.7473 53.6344 47.6656C53.6956 46.325 54.4919 45.1367 55.7169 44.5578C56.9419 43.9789 58.3659 44.1008 59.4531 44.8777C60.8925 45.8984 62.8984 45.7613 64.1847 44.4816C65.6241 43.0496 65.6241 40.734 64.1847 39.3172L52.5778 27.7695L47.0959 32.7969C42.9156 36.6359 36.4997 36.6969 32.2428 32.934C27.3888 28.6379 27.2816 21.1426 31.9978 16.7094L42.7319 6.62422C46.9275 2.69375 52.4706 0.5 58.2434 0.5C63.7713 0.5 69.1153 2.52617 73.2344 6.16719L77.8434 10.25H96.05C97.3975 10.25 98.5 11.3469 98.5 12.6875V44.375C98.5 47.0715 96.3103 49.25 93.6 49.25H88.7C86.8931 49.25 85.3006 48.275 84.4584 46.8125H71.4581C70.9375 47.8332 70.2484 48.8082 69.3909 49.6613C66.7725 52.2664 63.1434 53.2871 59.7441 52.7234C59.1928 53.8355 58.4425 54.8715 57.5084 55.8008C53.3281 59.9598 46.7897 60.3711 42.1347 57.0348C38.2912 60.2035 32.5644 60.0055 28.9659 56.4102L24.8469 52.2969L23.775 51.2305L18.3238 45.807C17.4816 44.9691 16.3791 44.4816 15.2 44.3902C15.2 47.0715 12.995 49.25 10.3 49.25H5.4C2.68969 49.25 0.5 47.0715 0.5 44.375V12.6875C0.5 11.3469 1.6025 10.25 2.95 10.25H18.2319C18.5381 10.25 18.8291 10.1434 19.0434 9.94531L23.1013 6.35C27.3734 2.58711 32.8706 0.5 38.5822 0.5H40.1594C40.8331 0.5 41.5222 0.530469 42.1806 0.591406ZM83.8 39.5V17.5625H76.45C75.5466 17.5625 74.6738 17.2273 74.0153 16.6332L68.365 11.6363C65.5781 9.16836 61.9797 7.8125 58.2434 7.8125C54.3541 7.8125 50.6178 9.29024 47.785 11.941L37.0509 22.0262C35.4738 23.5191 35.5044 26.0328 37.1275 27.4648C38.5516 28.7293 40.7106 28.6988 42.1041 27.4191L53.1138 17.3035C54.5991 15.9324 56.9266 16.0238 58.3047 17.5168C59.6828 19.0098 59.5909 21.3102 58.0903 22.6813L57.9678 22.8031L69.3603 34.1375C70.8916 35.6609 71.8869 37.5348 72.3309 39.4848H83.8V39.5ZM10.3 41.9375C10.3 41.291 10.0419 40.671 9.58241 40.2139C9.12295 39.7568 8.49978 39.5 7.85 39.5C7.20022 39.5 6.57705 39.7568 6.11759 40.2139C5.65812 40.671 5.4 41.291 5.4 41.9375C5.4 42.584 5.65812 43.204 6.11759 43.6611C6.57705 44.1182 7.20022 44.375 7.85 44.375C8.49978 44.375 9.12295 44.1182 9.58241 43.6611C10.0419 43.204 10.3 42.584 10.3 41.9375ZM91.15 44.375C91.7998 44.375 92.423 44.1182 92.8824 43.6611C93.3419 43.204 93.6 42.584 93.6 41.9375C93.6 41.291 93.3419 40.671 92.8824 40.2139C92.423 39.7568 91.7998 39.5 91.15 39.5C90.5002 39.5 89.8771 39.7568 89.4176 40.2139C88.9581 40.671 88.7 41.291 88.7 41.9375C88.7 42.584 88.9581 43.204 89.4176 43.6611C89.8771 44.1182 90.5002 44.375 91.15 44.375Z" fill="#4096FC"/>
</svg>
