<svg width="92" height="92" viewBox="0 0 92 92" fill="none" xmlns="http://www.w3.org/2000/svg">
<path d="M60.8916 0.70009C53.099 0.699707 45.3092 3.64928 39.3702 9.58823C30.974 17.9841 28.4987 30.0687 31.9412 40.6439L0.759766 71.8251V76.7538L33.3409 44.173C33.8673 45.2909 34.4601 46.3847 35.1294 47.4449L0.759766 81.8142V91.7253H9.75012L44.5621 56.9134C45.6106 57.5818 46.6992 58.1851 47.8218 58.7199L14.8109 91.7253H19.9846L51.5188 60.1911C62.081 63.6077 74.1449 61.1259 82.5266 52.7444C90.4537 44.8175 93.0536 33.621 90.4282 23.495L70.2766 43.6526L53.0437 39.0707L48.4561 21.8384L68.6133 1.68066C66.091 1.02955 63.4965 0.699949 60.8916 0.699707V0.70009Z" fill="#4096FC"/>
</svg>
