<svg width="32" height="32" viewBox="0 0 32 32" fill="none" xmlns="http://www.w3.org/2000/svg">
<path d="M32 16C32 7.1625 24.8375 0 16 0C7.1625 0 0 7.1625 0 16C0 23.9869 5.8475 30.6063 13.5013 31.8069V20.6287H9.44188V16H13.5013V12.4756C13.5013 8.46875 15.8856 6.25125 19.5419 6.25125C21.295 6.25125 23.1275 6.56687 23.1275 6.56687V10.5031H21.1112C19.1213 10.5031 18.5075 11.7394 18.5075 13.0019V16H22.9438L22.2337 20.6287H18.5075V31.8069C26.1525 30.6063 32 23.9869 32 16Z" fill="#1877F2"/>
<path d="M22.2248 20.629L22.9355 16.0002H18.4992V13.0021C18.4992 11.7396 19.1217 10.5033 21.103 10.5033H23.1192V6.56709C23.1192 6.56709 21.2867 6.25146 19.5336 6.25146C15.878 6.25146 13.493 8.46959 13.493 12.4758V16.0002H9.43359V20.629H13.493V31.8071C14.3086 31.9383 15.1411 32.0002 15.9917 32.0002C16.8423 32.0002 17.6748 31.9302 18.4905 31.8071V20.629H22.2248Z" fill="white"/>
</svg>
