<svg width="32" height="32" viewBox="0 0 32 32" fill="none" xmlns="http://www.w3.org/2000/svg">
<g clip-path="url(#clip0_145_280)">
<mask id="mask0_145_280" style="mask-type:luminance" maskUnits="userSpaceOnUse" x="0" y="0" width="32" height="32">
<path d="M0 16C0 24.8366 7.1634 32 16 32C24.8367 32 32.0001 24.8366 32.0001 16C32.0001 7.16334 24.8367 -6.48499e-05 16 -6.48499e-05C7.1634 -6.48499e-05 0 7.16334 0 16Z" fill="white"/>
</mask>
<g mask="url(#mask0_145_280)">
<path d="M0 16C0 24.8366 7.1634 32 16 32C24.8367 32 32.0001 24.8366 32.0001 16C32.0001 7.16334 24.8367 -6.48499e-05 16 -6.48499e-05C7.1634 -6.48499e-05 0 7.16334 0 16Z" fill="url(#paint0_linear_145_280)"/>
</g>
<mask id="mask1_145_280" style="mask-type:luminance" maskUnits="userSpaceOnUse" x="-3" y="-3" width="38" height="37">
<path d="M-2.15625 -2.15636H34.0455V33.8979H-2.15625V-2.15636Z" fill="white"/>
</mask>
<g mask="url(#mask1_145_280)">
<path d="M10.8301 17.1694L12.7284 22.4236C12.7284 22.4236 12.9657 22.915 13.2199 22.915C13.4742 22.915 17.2538 18.9828 17.2538 18.9828L21.4572 10.8642L10.8979 15.8133L10.8301 17.1694Z" fill="#C8DAEA"/>
</g>
<mask id="mask2_145_280" style="mask-type:luminance" maskUnits="userSpaceOnUse" x="-3" y="-3" width="38" height="37">
<path d="M-2.15625 -2.15636H34.0455V33.8979H-2.15625V-2.15636Z" fill="white"/>
</mask>
<g mask="url(#mask2_145_280)">
<path d="M13.3474 18.5169L12.9829 22.3897C12.9829 22.3897 12.8304 23.5761 14.0168 22.3897C15.2033 21.2032 16.3389 20.288 16.3389 20.288" fill="#A9C6D8"/>
</g>
<mask id="mask3_145_280" style="mask-type:luminance" maskUnits="userSpaceOnUse" x="-3" y="-3" width="38" height="37">
<path d="M-2.15625 -2.15636H34.0455V33.8979H-2.15625V-2.15636Z" fill="white"/>
</mask>
<g mask="url(#mask3_145_280)">
<path d="M10.8656 17.3568L6.96121 16.0846C6.96121 16.0846 6.49518 15.8954 6.64487 15.466C6.67579 15.3774 6.73803 15.3022 6.92447 15.1722C7.78982 14.5692 22.9386 9.12414 22.9386 9.12414C22.9386 9.12414 23.3664 8.98014 23.6193 9.07587C23.7348 9.11967 23.8086 9.16916 23.8707 9.34977C23.8933 9.41553 23.9063 9.55533 23.9046 9.69444C23.9032 9.79478 23.891 9.88767 23.8821 10.0334C23.7899 11.5222 21.0292 22.6325 21.0292 22.6325C21.0292 22.6325 20.864 23.2827 20.2722 23.3048C20.0563 23.3129 19.7943 23.2691 19.4811 22.9997C18.3197 22.0006 14.3052 19.3027 13.4183 18.7095C13.3681 18.6762 13.354 18.6326 13.3455 18.5902C13.333 18.5278 13.3997 18.45 13.3997 18.45C13.3997 18.45 20.3899 12.2364 20.5759 11.5845C20.5903 11.5339 20.5362 11.509 20.4628 11.5308C19.9985 11.7016 11.9502 16.7837 11.0621 17.345C11.0102 17.3779 10.8645 17.3567 10.8645 17.3567" fill="white"/>
</g>
</g>
<defs>
<linearGradient id="paint0_linear_145_280" x1="16" y1="31.9999" x2="16" y2="-0.000200443" gradientUnits="userSpaceOnUse">
<stop stop-color="#1D93D2"/>
<stop offset="1" stop-color="#38B0E3"/>
</linearGradient>
<clipPath id="clip0_145_280">
<rect width="32" height="32" fill="white"/>
</clipPath>
</defs>
</svg>
