<svg width="34" height="34" viewBox="0 0 34 34" fill="none" xmlns="http://www.w3.org/2000/svg">
<g clip-path="url(#clip0_145_239)">
<g filter="url(#filter0_f_145_239)">
<path d="M0.835938 33.2062L3.1144 24.9252C1.71345 22.5023 0.966795 19.7496 0.974493 16.9356C0.974493 8.1179 8.17937 0.94873 17.0315 0.94873C21.3267 0.94873 25.3602 2.61259 28.3853 5.63361C31.4182 8.65463 33.0885 12.6724 33.0808 16.9433C33.0808 25.761 25.876 32.9301 17.0238 32.9301H17.0161C14.3297 32.9301 11.6894 32.2554 9.34169 30.9826L0.835938 33.2062ZM9.74196 28.0842L10.2269 28.3756C12.2744 29.5871 14.6222 30.2235 17.0161 30.2312H17.0238C24.3749 30.2312 30.3636 24.2735 30.3636 16.9433C30.3636 13.3932 28.9781 10.0578 26.461 7.54284C23.9439 5.02787 20.5878 3.64771 17.0238 3.64771C9.66499 3.64771 3.67632 9.60541 3.67632 16.9356C3.67632 19.4429 4.37679 21.8888 5.71616 24.0051L6.03176 24.5112L4.68469 29.4107L9.74196 28.0842Z" fill="black" fill-opacity="0.24"/>
</g>
<path d="M1.56445 32.3513L3.73861 24.4533C2.40067 22.1437 1.69369 19.5161 1.69369 16.8355C1.69369 8.43015 8.56586 1.59229 16.9964 1.59229C21.0939 1.59229 24.9329 3.18249 27.8216 6.05999C30.7104 8.9375 32.2992 12.7691 32.2992 16.8431C32.2992 25.2484 25.427 32.0863 16.9964 32.0863H16.9888C14.427 32.0863 11.9107 31.4426 9.67575 30.231L1.56445 32.3513Z" fill="url(#paint0_linear_145_239)"/>
<path d="M1.00977 32.9044L3.25995 24.7262C1.87639 22.3333 1.139 19.6148 1.1466 16.8358C1.1466 8.12754 8.26204 1.04736 17.0043 1.04736C21.2462 1.04736 25.2296 2.69057 28.2172 5.67409C31.2124 8.65761 32.862 12.6255 32.8544 16.8434C32.8544 25.5516 25.7389 32.6318 16.9967 32.6318H16.9891C14.336 32.6318 11.7285 31.9654 9.40993 30.7084L1.00977 32.9044ZM9.80524 27.846L10.2842 28.1338C12.3063 29.3302 14.6249 29.9587 16.9891 29.9663H16.9967C24.2566 29.9663 30.1709 24.0826 30.1709 16.8434C30.1709 13.3373 28.8025 10.0434 26.3167 7.55961C23.8309 5.07587 20.5164 3.71284 16.9967 3.71284C9.72922 3.71284 3.81489 9.59658 3.81489 16.8358C3.81489 19.312 4.50667 21.7275 5.82941 23.8175L6.14109 24.3173L4.81075 29.156L9.80524 27.846Z" fill="white"/>
<path d="M13.0352 10.2247C12.7387 9.56593 12.427 9.55079 12.1457 9.54322C11.9177 9.53564 11.6516 9.53564 11.3855 9.53564C11.1195 9.53564 10.6938 9.63409 10.3289 10.0278C9.96398 10.4216 8.94531 11.3757 8.94531 13.3218C8.94531 15.2604 10.3669 17.1383 10.5645 17.4033C10.7622 17.6684 13.3088 21.7802 17.3303 23.3628C20.6751 24.6804 21.3593 24.4154 22.0815 24.3472C22.8113 24.2791 24.4229 23.3931 24.7574 22.4693C25.0843 21.5454 25.0843 20.7579 24.9855 20.5913C24.8866 20.4247 24.6206 20.3263 24.2253 20.1294C23.83 19.9325 21.8839 18.9784 21.519 18.8421C21.1541 18.7058 20.888 18.6452 20.6295 19.039C20.3635 19.4327 19.6033 20.3187 19.3752 20.5837C19.1471 20.8488 18.9115 20.8791 18.5162 20.6822C18.1209 20.4853 16.8438 20.0688 15.331 18.7209C14.1527 17.676 13.3545 16.3811 13.1264 15.9873C12.8983 15.5935 13.1036 15.3815 13.3012 15.1846C13.4761 15.0105 13.6965 14.7227 13.8942 14.4956C14.0918 14.2684 14.1603 14.1018 14.2895 13.8368C14.4187 13.5717 14.3579 13.3446 14.2591 13.1477C14.1603 12.9508 13.3849 11.0047 13.0352 10.2247Z" fill="white"/>
</g>
<defs>
<filter id="filter0_f_145_239" x="-5.16406" y="-5.05127" width="44.2441" height="44.2573" filterUnits="userSpaceOnUse" color-interpolation-filters="sRGB">
<feFlood flood-opacity="0" result="BackgroundImageFix"/>
<feBlend mode="normal" in="SourceGraphic" in2="BackgroundImageFix" result="shape"/>
<feGaussianBlur stdDeviation="3" result="effect1_foregroundBlur_145_239"/>
</filter>
<linearGradient id="paint0_linear_145_239" x1="1538.25" y1="3077.28" x2="1538.25" y2="1.42032" gradientUnits="userSpaceOnUse">
<stop stop-color="#20B038"/>
<stop offset="1" stop-color="#60D66A"/>
</linearGradient>
<clipPath id="clip0_145_239">
<rect width="34" height="34" fill="white"/>
</clipPath>
</defs>
</svg>
