<?xml version="1.0" encoding="utf-8"?>
<!-- Generator: Adobe Illustrator 25.4.1, SVG Export Plug-In . SVG Version: 6.00 Build 0)  -->
<svg version="1.1" id="Layer_1" xmlns="http://www.w3.org/2000/svg" xmlns:xlink="http://www.w3.org/1999/xlink" x="0px" y="0px"
	 viewBox="0 0 128 128" style="enable-background:new 0 0 128 128;" xml:space="preserve">
<style type="text/css">
	.st0{fill:#4096FC;}
</style>
<path class="st0" d="M126,94h-10.3c0.2-0.6,0.3-1.3,0.3-1.9V27.9c0-3.3-2.7-5.9-5.9-5.9H17.9c-3.3,0-5.9,2.7-5.9,5.9v64.1
	c0,0.7,0.1,1.3,0.3,1.9H2c-1.1,0-2,0.9-2,2v0.5c0,4.5,3.6,9.5,8.5,9.5h111c4.9,0,8.5-5,8.5-9.5V96C128,94.9,127.1,94,126,94z
	 M16,92.1V27.9c0-1.1,0.9-1.9,1.9-1.9c0,0,0,0,0,0h92.1c1.1,0,1.9,0.9,1.9,1.9v64.1c0,1.1-0.9,1.9-1.9,1.9c0,0,0,0,0,0H17.9
	C16.9,94,16,93.1,16,92.1L16,92.1z M119.5,102H8.5c-1.9,0-3.7-2-4.3-4h119.5C123.2,100.1,121.4,102,119.5,102z"/>
<path class="st0" d="M84,70.2c0,0-5.3-2.4-5.3-7.6c0.1-2.8,1.6-5.4,4-6.8c1-0.5,1.3-1.7,0.8-2.7c0-0.1-0.1-0.1-0.1-0.2
	c-0.7-1-1.5-2-2.5-2.8c-2.4-2-6.6-2.6-8.7-2.6c-2,0.2-4,0.7-5.9,1.5c-0.6,0.3-1.3,0.5-1.9,0.7c-0.3-0.1-0.9-0.3-1.5-0.5
	c-2.5-0.9-6.3-2.1-9.8-1.1C44.4,50.7,43,59.2,42.8,62.8c-0.3,5.6,4.1,14.9,5.5,17l0.3,0.4c1.5,2.3,3.7,5.5,7.7,5.8h0.7
	c1.7-0.1,3.4-0.4,4.9-1.1c0.9-0.4,2-0.7,3-0.8c1.1,0.1,2.2,0.3,3.2,0.8c1.5,0.6,3.2,1,4.9,1.1c3.4,0,5.7-2.9,7.3-4.8
	c0.3-0.4,0.7-0.8,0.9-1c1.5-1.5,3.3-6,3.8-7.4C85.5,71.7,85,70.6,84,70.2z M78.4,77.3c-0.4,0.4-0.8,0.9-1.2,1.4
	C76.2,80,74.5,82,73.1,82c-1.2-0.1-2.4-0.3-3.6-0.8c-1.4-0.6-3-0.9-4.5-1c-1.5,0.1-3,0.4-4.4,1C59.3,81.7,58,82,56.7,82
	c-2-0.2-3.2-1.7-4.7-4l-0.3-0.5c-1.3-2-5-10.3-4.8-14.5c0.2-2.7,1.2-9.3,7.6-11.2c0.5-0.2,1.1-0.2,1.6-0.2c1.9,0.1,3.8,0.6,5.7,1.3
	c0.9,0.4,1.8,0.6,2.8,0.7c1.2-0.1,2.3-0.5,3.4-1c1.4-0.6,2.9-1.1,4.5-1.3c2,0,4.9,0.6,6.1,1.6c0.2,0.2,0.4,0.3,0.5,0.5
	c-2.7,2.2-4.2,5.5-4.2,9c0,5.5,3.7,8.8,6,10.3C80.1,74.4,79.3,75.9,78.4,77.3L78.4,77.3z"/>
<path class="st0" d="M64.1,46.7c0,0,0.2,0,0.5,0c3.1-0.1,6-1.6,7.7-4.1c1.8-2.2,2.6-5,2.5-7.8c-0.1-0.5-0.3-1-0.8-1.3
	c-0.4-0.3-1-0.5-1.5-0.4c-2.7,0.4-5.3,1.7-7.3,3.6c-3.1,3.1-3,8-3,8.2C62.3,45.7,63.1,46.5,64.1,46.7z M68.1,39.4
	c0.7-0.7,1.4-1.2,2.3-1.6c-0.3,0.8-0.7,1.6-1.3,2.3c-0.7,0.9-1.5,1.6-2.5,2.1C66.8,41.2,67.4,40.2,68.1,39.4L68.1,39.4z"/>
</svg>
