<svg width="83" height="73" viewBox="0 0 83 73" fill="none" xmlns="http://www.w3.org/2000/svg">
<path d="M55.1667 1.59984C51.75 1.59984 49.0167 4.33317 49.0167 7.74984C49.0167 11.1665 51.75 13.8998 55.1667 13.8998C58.5833 13.8998 61.3167 11.1665 61.3167 7.74984C61.3167 4.33317 58.5833 1.59984 55.1667 1.59984ZM42.8667 11.5082C41.2608 11.5082 39.7917 12.1573 38.7667 13.2165L26.125 25.824C25.0658 26.8832 24.4167 28.2498 24.4167 29.9582C24.4167 32.1107 25.5442 33.9215 27.3208 34.9807L38.7667 41.9165V58.9998H44.9167V36.7915L37.2292 31.154L45.1558 23.1248L51.0667 31.6665H65.4167V25.5165H54.4833L47.855 14.344C46.8642 12.6357 44.9167 11.5082 42.8667 11.5082ZM34.6667 7.74984H10.75C8.87083 7.74984 7.33333 6.21234 7.33333 4.33317C7.33333 2.454 8.87083 0.916504 10.75 0.916504H44.1992C43.4817 2.07817 42.9008 3.34234 42.5933 4.709C39.655 4.77734 36.8875 5.87067 34.6667 7.74984ZM17.5833 38.4998C8.15333 38.4998 0.5 46.1532 0.5 55.5832C0.5 65.0132 8.15333 72.6665 17.5833 72.6665C27.0133 72.6665 34.6667 65.0132 34.6667 55.5832C34.6667 46.1532 27.0133 38.4998 17.5833 38.4998ZM17.5833 67.5415C10.9892 67.5415 5.625 62.1773 5.625 55.5832C5.625 48.989 10.9892 43.6248 17.5833 43.6248C24.1775 43.6248 29.5417 48.989 29.5417 55.5832C29.5417 62.1773 24.1775 67.5415 17.5833 67.5415ZM65.4167 38.4998C55.9867 38.4998 48.3333 46.1532 48.3333 55.5832C48.3333 65.0132 55.9867 72.6665 65.4167 72.6665C74.8467 72.6665 82.5 65.0132 82.5 55.5832C82.5 46.1532 74.8467 38.4998 65.4167 38.4998ZM65.4167 67.5415C58.8225 67.5415 53.4583 62.1773 53.4583 55.5832C53.4583 48.989 58.8225 43.6248 65.4167 43.6248C72.0108 43.6248 77.375 48.989 77.375 55.5832C77.375 62.1773 72.0108 67.5415 65.4167 67.5415ZM18.6767 35.0832H3.91667C2.03067 35.0832 0.5 33.5457 0.5 31.6665C0.5 29.7873 2.03067 28.2498 3.91667 28.2498H17.7542C17.6858 28.7965 17.5833 29.3773 17.5833 29.9582C17.5833 31.769 17.9933 33.5115 18.6767 35.0832ZM21 21.4165H7.33333C5.45417 21.4165 3.91667 19.879 3.91667 17.9998C3.91667 16.1207 5.45417 14.5832 7.33333 14.5832H27.7308L21.3075 20.9723C21.1708 21.109 21 21.2798 21 21.4165Z" fill="#4096FC"/>
</svg>
