<svg width="88" height="88" viewBox="0 0 88 88" fill="none" xmlns="http://www.w3.org/2000/svg">
<path d="M44 0.25C19.8763 0.25 0.25 19.8763 0.25 44V62.1256C0.25 66.6056 4.17437 70.25 9 70.25H13.375C14.5353 70.25 15.6481 69.7891 16.4686 68.9686C17.2891 68.1481 17.75 67.0353 17.75 65.875V43.3744C17.75 42.2141 17.2891 41.1013 16.4686 40.2808C15.6481 39.4603 14.5353 38.9994 13.375 38.9994H9.4025C11.835 22.0681 26.4038 9 44 9C61.5962 9 76.165 22.0681 78.5975 38.9994H74.625C73.4647 38.9994 72.3519 39.4603 71.5314 40.2808C70.7109 41.1013 70.25 42.2141 70.25 43.3744V70.25C70.25 75.0756 66.3256 79 61.5 79H52.75V74.625H35.25V87.75H61.5C71.1513 87.75 79 79.9013 79 70.25C83.8256 70.25 87.75 66.6056 87.75 62.1256V44C87.75 19.8763 68.1237 0.25 44 0.25Z" fill="#4096FC"/>
</svg>
