<svg width="67" height="85" viewBox="0 0 67 85" fill="none" xmlns="http://www.w3.org/2000/svg">
<path d="M66.8541 15.571V69.3415C66.8541 71.2245 66.3035 72.8963 65.2021 74.357C64.1008 75.82 62.639 76.8117 60.8166 77.332L36.7086 84.241C36.3913 84.3273 36.053 84.3915 35.6936 84.4335C35.3296 84.4778 34.9878 84.5 34.6681 84.5C33.7441 84.5 32.9041 84.3775 32.1481 84.1325C31.3991 83.8852 30.6338 83.5445 29.8521 83.1105L14.0846 74.2065C13.506 73.8868 13.0498 73.4598 12.7161 72.9255C12.3825 72.3888 12.2156 71.788 12.2156 71.123C12.2156 70.1103 12.5703 69.2493 13.2796 68.54C13.989 67.8283 14.8511 67.4725 15.8661 67.4725H36.2746V17.874L20.9446 23.3445C19.701 23.7808 18.7023 24.5485 17.9486 25.6475C17.1973 26.7488 16.8216 27.9505 16.8216 29.2525V57.5255C16.8216 58.6828 16.5323 59.7468 15.9536 60.7175C15.3703 61.6882 14.5735 62.4477 13.5631 62.996L6.31112 66.951C5.64379 67.2963 4.97762 67.469 4.31262 67.469C3.15296 67.469 2.16829 67.0642 1.35862 66.2545C0.546624 65.4448 0.140625 64.4602 0.140625 63.3005V23.4705C0.140625 22.0238 0.525625 20.6355 1.29562 19.3055C2.06096 17.9732 3.08063 16.9453 4.35462 16.222L30.2441 1.4975C30.8228 1.18017 31.4458 0.935167 32.1131 0.7625C32.7781 0.5875 33.4431 0.5 34.1081 0.5C34.6005 0.5 35.0438 0.536167 35.4381 0.6085C35.8255 0.680833 36.2501 0.789333 36.7121 0.934L60.8201 7.5805C61.7161 7.83717 62.5328 8.221 63.2701 8.732C64.0098 9.23833 64.648 9.845 65.1846 10.552C65.7213 11.2637 66.1331 12.0453 66.4201 12.897C66.7118 13.7533 66.8541 14.6447 66.8541 15.571ZM61.2961 69.3415V15.571C61.2961 14.934 61.1095 14.3763 60.7361 13.898C60.3558 13.422 59.8623 13.0953 59.2556 12.918L47.3976 9.663C46.4713 9.404 45.545 9.13567 44.6186 8.858C43.6923 8.585 42.766 8.333 41.8396 8.102V76.982L59.2556 71.9875C59.8623 71.8148 60.3546 71.4882 60.7326 71.0075C61.1083 70.5315 61.2961 69.975 61.2961 69.338V69.3415Z" fill="#4096FC"/>
</svg>
